HIERARCHY
ROOT hip
{
  OFFSET 0 0 0
  CHANNELS 6 Xposition Yposition Zposition Zrotation Yrotation Xrotation
  JOINT abdomen
  {
    OFFSET 0 20.6881 -0.73152
    CHANNELS 3 Zrotation Xrotation Yrotation
    JOINT chest
    {
      OFFSET 0 11.7043 -0.48768
      CHANNELS 3 Zrotation Xrotation Yrotation
      JOINT neck
      {
        OFFSET 0 22.1894 -2.19456
        CHANNELS 3 Zrotation Xrotation Yrotation
        JOINT head
        {
          OFFSET -0.24384 7.07133 1.2192
          CHANNELS 3 Zrotation Xrotation Yrotation
          JOINT leftEye
          {
            OFFSET 4.14528 8.04674 8.04672
            CHANNELS 3 Zrotation Xrotation Yrotation
            End Site
            {
              OFFSET 1 0 0
            }
          }
          JOINT rightEye
          {
            OFFSET -3.6576 8.04674 8.04672
            CHANNELS 3 Zrotation Xrotation Yrotation
            End Site
            {
              OFFSET 1 0 0
            }
          }
        }
      }
      JOINT rCollar
      {
        OFFSET -2.68224 19.2634 -4.8768
        CHANNELS 3 Zrotation Xrotation Yrotation
        JOINT rShldr
        {
          OFFSET -8.77824 -1.95073 1.46304
          CHANNELS 3 Zrotation Xrotation Yrotation
          JOINT rForeArm
          {
            OFFSET -28.1742 -1.7115 0.48768
            CHANNELS 3 Zrotation Xrotation Yrotation
            JOINT rHand
            {
              OFFSET -22.5879 0.773209 7.07136
              CHANNELS 3 Zrotation Xrotation Yrotation
              JOINT rThumb1
              {
                OFFSET -1.2192 -0.487915 3.41376
                CHANNELS 3 Zrotation Xrotation Yrotation
                JOINT rThumb2
                {
                  OFFSET -3.37035 -0.52449 3.41376
                  CHANNELS 3 Zrotation Xrotation Yrotation
                  End Site
                  {
                    OFFSET -1.78271 -1.18214 1.43049
                  }
                }
              }
              JOINT rIndex1
              {
                OFFSET -7.75947 0.938293 5.60832
                CHANNELS 3 Zrotation Xrotation Yrotation
                JOINT rIndex2
                {
                  OFFSET -2.54057 -0.884171 1.56538
                  CHANNELS 3 Zrotation Xrotation Yrotation
                  End Site
                  {
                    OFFSET -1.62519 -0.234802 1.16502
                  }
                }
              }
              JOINT rMid1
              {
                OFFSET -8.24714 1.18213 3.41376
                CHANNELS 3 Zrotation Xrotation Yrotation
                JOINT rMid2
                {
                  OFFSET -3.10165 -0.590103 1.0647
                  CHANNELS 3 Zrotation Xrotation Yrotation
                  End Site
                  {
                    OFFSET -2.48547 -0.328903 0.83742
                  }
                }
              }
              JOINT rRing1
              {
                OFFSET -8.82822 0.546677 1.51678
                CHANNELS 3 Zrotation Xrotation Yrotation
                JOINT rRing2
                {
                  OFFSET -2.60934 -0.819778 -0.0198488
                  CHANNELS 3 Zrotation Xrotation Yrotation
                  End Site
                  {
                    OFFSET -2.33842 -0.294052 0.168128
                  }
                }
              }
              JOINT rPinky1
              {
                OFFSET -8.27202 -0.0477905 -0.4584
                CHANNELS 3 Zrotation Xrotation Yrotation
                JOINT rPinky2
                {
                  OFFSET -1.82734 -0.647385 -0.700984
                  CHANNELS 3 Zrotation Xrotation Yrotation
                  End Site
                  {
                    OFFSET -1.69225 -0.51767 -0.607171
                  }
                }
              }
            }
          }
        }
      }
      JOINT lCollar
      {
        OFFSET 2.68224 19.2634 -4.8768
        CHANNELS 3 Zrotation Xrotation Yrotation
        JOINT lShldr
        {
          OFFSET 8.77824 -1.95073 1.46304
          CHANNELS 3 Zrotation Xrotation Yrotation
          JOINT lForeArm
          {
            OFFSET 28.1742 -1.7115 0.48768
            CHANNELS 3 Zrotation Xrotation Yrotation
            JOINT lHand
            {
              OFFSET 22.5879 0.773209 7.07136
              CHANNELS 3 Zrotation Xrotation Yrotation
              JOINT lThumb1
              {
                OFFSET 1.2192 -0.487915 3.41376
                CHANNELS 3 Zrotation Xrotation Yrotation
                JOINT lThumb2
                {
                  OFFSET 3.37035 -0.52449 3.41376
                  CHANNELS 3 Zrotation Xrotation Yrotation
                  End Site
                  {
                    OFFSET 1.78271 -1.18214 1.43049
                  }
                }
              }
              JOINT lIndex1
              {
                OFFSET 7.75947 0.938293 5.60832
                CHANNELS 3 Zrotation Xrotation Yrotation
                JOINT lIndex2
                {
                  OFFSET 2.54057 -0.884171 1.56538
                  CHANNELS 3 Zrotation Xrotation Yrotation
                  End Site
                  {
                    OFFSET 1.62519 -0.234802 1.16502
                  }
                }
              }
              JOINT lMid1
              {
                OFFSET 8.24714 1.18213 3.41376
                CHANNELS 3 Zrotation Xrotation Yrotation
                JOINT lMid2
                {
                  OFFSET 3.10165 -0.590103 1.0647
                  CHANNELS 3 Zrotation Xrotation Yrotation
                  End Site
                  {
                    OFFSET 2.48547 -0.328903 0.83742
                  }
                }
              }
              JOINT lRing1
              {
                OFFSET 8.82822 0.546677 1.51678
                CHANNELS 3 Zrotation Xrotation Yrotation
                JOINT lRing2
                {
                  OFFSET 2.60934 -0.819778 -0.0198488
                  CHANNELS 3 Zrotation Xrotation Yrotation
                  End Site
                  {
                    OFFSET 2.33842 -0.294052 0.168128
                  }
                }
              }
              JOINT lPinky1
              {
                OFFSET 8.27202 -0.0477905 -0.4584
                CHANNELS 3 Zrotation Xrotation Yrotation
                JOINT lPinky2
                {
                  OFFSET 1.82734 -0.647385 -0.700984
                  CHANNELS 3 Zrotation Xrotation Yrotation
                  End Site
                  {
                    OFFSET 1.69225 -0.51767 -0.607171
                  }
                }
              }
            }
          }
        }
      }
    }
  }
  JOINT rButtock
  {
    OFFSET -8.77824 4.35084 1.2192
    CHANNELS 3 Zrotation Xrotation Yrotation
    JOINT rThigh
    {
      OFFSET 0 -1.70687 -2.19456
      CHANNELS 3 Zrotation Xrotation Yrotation
      JOINT rShin
      {
        OFFSET 0 -36.8199 0.73152
        CHANNELS 3 Zrotation Xrotation Yrotation
        JOINT rFoot
        {
          OFFSET 0.73152 -45.1104 -5.12064
          CHANNELS 3 Zrotation Xrotation Yrotation
          End Site
          {
            OFFSET -1.1221 -3.69964 12.103
          }
        }
      }
    }
  }
  JOINT lButtock
  {
    OFFSET 8.77824 4.35084 1.2192
    CHANNELS 3 Zrotation Xrotation Yrotation
    JOINT lThigh
    {
      OFFSET 0 -1.70687 -2.19456
      CHANNELS 3 Zrotation Xrotation Yrotation
      JOINT lShin
      {
        OFFSET 0 -36.8199 0.73152
        CHANNELS 3 Zrotation Xrotation Yrotation
        JOINT lFoot
        {
          OFFSET -0.73152 -45.1104 -5.12064
          CHANNELS 3 Zrotation Xrotation Yrotation
          End Site
          {
            OFFSET 1.1221 -3.69964 12.103
          }
        }
      }
    }
  }
}
MOTION
Frames:	4
Frame Time:	0.03333
44.3085 57.5577 -77.2547 -24.52699089050293 -79.5270004272461 23.992998123168945 -2.058159828186035 23.216999053955078 6.329170227050781 -0.3157409727573395 -12.2652006149292 1.5082401037216187 -10.585201263427734 15.22609806060791 -10.352899551391602 17.66699981689453 -31.168596267700195 -15.799702644348145 -0.0 0.0 -0.0 -0.0 0.0 -0.0 5.171279799775358e-14 1.0894299243106864e-13 -1.4297600375769853e-13 -54.07949447631836 25.600799560546875 103.86599731445312 -11.69480037689209 -5.236860752105713 21.020599365234375 -0.026847798377275467 4.671960353851318 0.6580760478973389 -8.811249507800767e-10 2.972819990176845e-09 -1.5308299072813725e-09 -1.5283798671106297e-09 5.145509796022907e-09 -2.64452992837505e-09 -8.811190110868949e-10 2.9728299821840665e-09 -1.530839899288594e-09 7.730909824371338 5.474879741668701 0.4173140823841095 -8.811268936703698e-10 2.972819990176845e-09 -1.5308299072813725e-09 2.9055399894714355 0.9651829600334167 0.10290199518203735 -8.811280594045456e-10 2.972819990176845e-09 -1.5308299072813725e-09 10.27859878540039 0.73180091381073 0.025912316516041756 -8.8113005780599e-10 2.972819990176845e-09 -1.5308199152741508e-09 2.221669912338257 -0.733487069606781 -0.208919957280159 5.165869969747834e-14 1.0892499467500538e-13 -1.431749955139311e-13 16.987600326538086 6.467639446258545 -109.93598937988281 25.96399688720703 -46.34189987182617 -96.27699279785156 36.723594665527344 -78.593017578125 44.152198791503906 2.1657999005331163e-10 -1.595489851347054e-09 1.7156698284281902e-09 2.660970055412548e-10 -2.1731798582891315e-09 2.923439934576777e-09 2.1657399484897866e-10 -1.5954799703621347e-09 1.7156899234649359e-09 -7.730909824371338 5.474879741668701 -0.4173140823841095 2.1657599325042298e-10 -1.5954799703621347e-09 1.7156698284281902e-09 -2.9055399894714355 0.9651829600334167 -0.10290199518203735 2.1657399484897866e-10 -1.5954799703621347e-09 1.7156698284281902e-09 -10.27859878540039 0.73180091381073 -0.025912316516041756 2.16580975376246e-10 -1.5954799703621347e-09 1.715659947443271e-09 -2.221669912338257 -0.733487069606781 0.208919957280159 -2.0321699480147914e-16 0.0 -3.8825099822884138e-19 -50.502197265625 -49.00559997558594 -38.32389831542969 -46.26139831542969 88.49506378173828 46.33879470825195 -4.419849872589111 -22.057401657104492 -5.327620029449463 2.0321699480147914e-16 0.0 3.8825099822884138e-19 60.44889831542969 -56.54659652709961 42.223201751708984 78.51240539550781 88.89269256591797 -78.62079620361328 -3.068230152130127 -24.677400588989258 -6.84168004989624
44.464099999999995 57.2654 -77.3842 -23.4119930267334 -78.94802856445312 23.023998260498047 -2.1062204837799072 23.571895599365234 6.610509872436523 -0.22864799201488495 -12.285599708557129 1.5854400396347046 -10.73320198059082 15.468599319458008 -10.391501426696777 17.78139877319336 -31.771699905395508 -15.808101654052734 -0.0 0.0 -0.0 -0.0 0.0 -0.0 -1.0122599585060525e-15 -2.959590038320581e-13 -1.7470999148262722e-13 -49.17889404296875 28.119203567504883 100.5009994506836 -11.781298637390137 -5.294219493865967 21.191299438476562 -0.041209395974874496 5.421849727630615 0.7652640342712402 -9.0135199304342e-10 1.1174599023888732e-09 -4.1853496363097875e-11 -1.5554200150091901e-09 1.9290000707883337e-09 -6.809949826269701e-11 -9.013469970398091e-10 1.1174700054183972e-09 -4.18657990219895e-11 7.730909824371338 5.474879741668701 0.4173140823841095 -9.013539914448643e-10 1.1174700054183972e-09 -4.185509924758968e-11 2.9055399894714355 0.9651829600334167 0.10290199518203735 -9.013479407293801e-10 1.1174700054183972e-09 -4.184610297164326e-11 10.27859878540039 0.73180091381073 0.025912316516041756 -9.013529922441421e-10 1.1174700054183972e-09 -4.183419582970416e-11 2.221669912338257 -0.733487069606781 -0.208919957280159 -1.074959984239776e-15 -2.9597299004008315e-13 -1.7487499350075236e-13 17.419099807739258 6.688291072845459 -109.85900115966797 25.99850082397461 -46.27549743652344 -96.13470458984375 31.760000228881836 -77.42779541015625 39.077301025390625 -2.4902199746712483e-10 3.951599880647194e-10 8.491109482200443e-10 -4.776279927121152e-10 9.49626932644776e-10 1.4277499182924203e-09 -2.490309902736243e-10 3.9516698246977455e-10 8.491299885449166e-10 -7.730909824371338 5.474879741668701 -0.4173140823841095 -2.4902699347073565e-10 3.951690086267945e-10 8.491129466214886e-10 -2.9055399894714355 0.9651829600334167 -0.10290199518203735 -2.4902699347073565e-10 3.9515898886399725e-10 8.491119474207665e-10 -10.27859878540039 0.73180091381073 -0.025912316516041756 -2.490199713101049e-10 3.951629856668859e-10 8.491009007016714e-10 -2.221669912338257 -0.733487069606781 0.208919957280159 -2.0321699480147914e-16 0.0 -3.8825099822884138e-19 -51.463600158691406 -48.90530014038086 -39.429298400878906 -64.88599395751953 88.79131317138672 64.9678955078125 -4.584069728851318 -22.227703094482422 -5.553369998931885 2.0321699480147914e-16 0.0 3.8825099822884138e-19 61.318397521972656 -57.35309600830078 42.91519546508789 92.94369506835938 88.90513610839844 -93.03419494628906 -3.391200065612793 -24.60830307006836 -7.3767194747924805
44.5884 57.003 -77.52630000000002 -22.764001846313477 -78.1850357055664 22.594993591308594 -1.8314200639724731 23.76039695739746 6.45352029800415 -0.13651199638843536 -12.260499954223633 1.5605798959732056 -10.805998802185059 15.607699394226074 -10.378300666809082 17.57480239868164 -32.229000091552734 -15.796499252319336 -0.0 0.0 -0.0 -0.0 0.0 -0.0 -3.654530088379078e-14 -6.007229761371968e-13 -1.875529896319672e-13 -40.434200286865234 30.620901107788086 95.05590057373047 -12.091599464416504 -5.513110160827637 21.78730010986328 -0.07187670469284058 7.626589775085449 1.0782898664474487 -8.816560259639061e-10 -1.0855699672518426e-09 1.7353198877856357e-09 -1.5105899864309436e-09 -1.891629963779451e-09 3.007869953108866e-09 -8.816519736498662e-10 -1.085559975244621e-09 1.735300014793495e-09 7.730909824371338 5.474879741668701 0.4173140823841095 -8.816599672556436e-10 -1.085559975244621e-09 1.7353198877856357e-09 2.9055399894714355 0.9651829600334167 0.10290199518203735 -8.816459784455333e-10 -1.085559975244621e-09 1.7353297687705549e-09 10.27859878540039 0.73180091381073 0.025912316516041756 -8.816529728505884e-10 -1.0855699672518426e-09 1.7353399828223814e-09 2.221669912338257 -0.733487069606781 -0.208919957280159 -3.660979736052651e-14 -6.007320292253371e-13 -1.8770198611552102e-13 18.238500595092773 6.947270393371582 -109.5679931640625 26.010297775268555 -46.25279998779297 -96.085693359375 23.456998825073242 -74.53280639648438 30.52410125732422 -8.93568941062739e-10 2.9492899233929393e-09 -1.4444799523172236e-10 -1.5203798220397857e-09 4.999999969612645e-09 -2.9302898996164117e-10 -8.935819861832783e-10 2.949299693355556e-09 -1.4442899654021346e-10 -7.730909824371338 5.474879741668701 -0.4173140823841095 -8.935750472893744e-10 2.949299693355556e-09 -1.4444799523172236e-10 -2.9055399894714355 0.9651829600334167 -0.10290199518203735 -8.935739370663498e-10 2.9492799313857176e-09 -1.4445100671167665e-10 -10.27859878540039 0.73180091381073 -0.025912316516041756 -8.935659989717237e-10 2.9492899233929393e-09 -1.4446099871889828e-10 -2.221669912338257 -0.733487069606781 0.208919957280159 -2.0321699480147914e-16 0.0 -3.8825099822884138e-19 -52.14780807495117 -48.773197174072266 -40.444602966308594 -85.58799743652344 88.89801025390625 85.67889404296875 -4.818360328674316 -22.342300415039062 -5.91131067276001 2.0321699480147914e-16 0.0 3.8825099822884138e-19 62.26709747314453 -58.24899673461914 43.5172004699707 105.00499725341797 88.86013793945312 -105.07599639892578 -3.6437504291534424 -24.53310203552246 -7.795709133148193
44.6509 56.7923 -77.6461 -22.315000534057617 -77.57398223876953 22.37399673461914 -1.5506699085235596 23.800498962402344 5.95426082611084 -0.03052609972655773 -12.04419994354248 1.4431997537612915 -10.855299949645996 15.61340045928955 -10.306500434875488 17.31439781188965 -32.713096618652344 -15.668500900268555 -0.0 0.0 -0.0 -0.0 0.0 -0.0 8.108560345517976e-14 3.366489758401675e-13 -7.938959954928784e-14 -32.24300003051758 31.43269920349121 90.0440902709961 -12.378399848937988 -5.6755499839782715 22.436601638793945 -0.17231301963329315 9.719281196594238 1.3794499635696411 -8.705029475031267e-10 -6.119339479582209e-10 1.5481100845704532e-09 -1.493649981476608e-09 -1.071569943889017e-09 2.6840401012862003e-09 -8.704980070106672e-10 -6.119300066664835e-10 1.548089878511405e-09 7.730909824371338 5.474879741668701 0.4173140823841095 -8.705069998171666e-10 -6.119320050679278e-10 1.5481100845704532e-09 2.9055399894714355 0.9651829600334167 0.10290199518203735 -8.704928999847539e-10 -6.119339479582209e-10 1.5481100845704532e-09 10.27859878540039 0.73180091381073 0.025912316516041756 -8.705009491016824e-10 -6.11934947158943e-10 1.5481199655553723e-09 2.221669912338257 -0.733487069606781 -0.208919957280159 8.1028703169915e-14 3.3663498963214245e-13 -7.958840157014022e-14 18.485198974609375 7.6389288902282715 -109.08999633789062 26.01129913330078 -46.24010467529297 -96.07579803466797 19.57270050048828 -72.49590301513672 26.473600387573242 -1.0593500521238752e-09 3.09931991182566e-09 1.7401999286015268e-10 -1.8241699262233624e-09 5.358749888273451e-09 2.3843899077391484e-10 -1.0593599331087944e-09 3.0993299038328814e-09 1.7403199714660644e-10 -7.730909824371338 5.474879741668701 -0.4173140823841095 -1.0593500521238752e-09 3.099339895840103e-09 1.7401598217947623e-10 -2.9055399894714355 0.9651829600334167 -0.10290199518203735 -1.0593599331087944e-09 3.0993299038328814e-09 1.7401499685654187e-10 -10.27859878540039 0.73180091381073 -0.025912316516041756 -1.0593399490943511e-09 3.0993299038328814e-09 1.7400499097153244e-10 -2.221669912338257 -0.733487069606781 0.208919957280159 -2.0321699480147914e-16 0.0 -3.8825099822884138e-19 -52.655704498291016 -48.714996337890625 -41.20979690551758 -103.40799713134766 88.86736297607422 103.50399017333984 -5.0135498046875 -22.35809898376465 -6.218539714813232 2.0321699480147914e-16 0.0 3.8825099822884138e-19 62.83659362792969 -58.98400115966797 43.81169891357422 111.68699645996094 88.81023406982422 -111.74899291992188 -3.697660207748413 -24.47800064086914 -7.875209808349609
